
<svg width="231" height="231" viewBox="0 0 231 231" fill="none" xmlns="http://www.w3.org/2000/svg">
<g clip-path="url(#clip0_2_2)">
<circle cx="115.021" cy="115.021" r="110.5" fill="#1D1D1D" stroke="black"/>
<circle cx="115.021" cy="115.021" r="33.5" fill="#C4C4C4" stroke="black"/>
<circle cx="115.021" cy="115.021" r="11.5" fill="white" stroke="black"/>
<circle cx="115.021" cy="115.021" r="44.6231" stroke="black"/>
<circle cx="115.021" cy="115.021" r="47.875" stroke="#333333" stroke-width="0.25"/>
<circle cx="115.021" cy="115.021" r="50.875" stroke="#333333" stroke-width="0.25"/>
<circle cx="115.021" cy="115.021" r="53.875" stroke="#333333" stroke-width="0.25"/>
<circle cx="115.021" cy="115.021" r="56.875" stroke="#333333" stroke-width="0.25"/>
<circle cx="115.021" cy="115.021" r="59.875" stroke="#333333" stroke-width="0.25"/>
<circle cx="115.021" cy="115.021" r="62.875" stroke="#333333" stroke-width="0.25"/>
<circle cx="115.021" cy="115.021" r="65.875" stroke="#333333" stroke-width="0.25"/>
<circle cx="115.021" cy="115.021" r="68.875" stroke="#333333" stroke-width="0.25"/>
<circle cx="115.021" cy="115.021" r="71.875" stroke="#333333" stroke-width="0.25"/>
<circle cx="115.021" cy="115.021" r="74.875" stroke="#333333" stroke-width="0.25"/>
<circle cx="115.021" cy="115.021" r="80.875" stroke="#333333" stroke-width="0.25"/>
<circle cx="115.021" cy="115.021" r="83.875" stroke="#333333" stroke-width="0.25"/>
<circle cx="115.021" cy="115.021" r="86.875" stroke="#333333" stroke-width="0.25"/>
<circle cx="115.021" cy="115.021" r="89.875" stroke="#333333" stroke-width="0.25"/>
<circle cx="115.021" cy="115.021" r="95.875" stroke="#333333" stroke-width="0.25"/>
<circle cx="115.021" cy="115.021" r="98.875" stroke="#333333" stroke-width="0.25"/>
<circle cx="115.021" cy="115.021" r="101.875" stroke="#333333" stroke-width="0.25"/>
<circle cx="115.021" cy="115.021" r="104.875" stroke="#333333" stroke-width="0.25"/>
<circle cx="115.021" cy="115.021" r="104.875" stroke="#333333" stroke-width="0.25"/>
<path d="M192.896 115.021C192.896 158.031 158.031 192.896 115.021 192.896C72.0122 192.896 37.1463 158.031 37.1463 115.021C37.1463 72.0122 72.0122 37.1464 115.021 37.1464C158.031 37.1464 192.896 72.0122 192.896 115.021Z" stroke="#333333" stroke-width="0.25"/>
<path d="M207.896 115.021C207.896 166.315 166.315 207.896 115.021 207.896C63.7279 207.896 22.1463 166.315 22.1463 115.021C22.1463 63.7279 63.7279 22.1464 115.021 22.1464C166.315 22.1464 207.896 63.7279 207.896 115.021Z" stroke="#333333" stroke-width="0.25"/>
<path d="M26.9295 106.114L18.2727 105.008L18.4067 103.959L26.1336 104.947L26.6481 100.923L27.578 101.042L26.9295 106.114Z" fill="#EEEEEE"/>
<path d="M28.4632 97.1524C28.3414 97.7306 28.097 98.2089 27.7298 98.5874C27.3633 98.9631 26.9069 99.2212 26.3605 99.3616C25.8147 99.4993 25.2111 99.4984 24.5494 99.3591C23.8822 99.2186 23.3253 98.975 22.8786 98.6283C22.4326 98.2789 22.1176 97.8584 21.9337 97.3667C21.7504 96.8723 21.7196 96.336 21.8414 95.7578C21.9632 95.1796 22.2073 94.7026 22.5739 94.3269C22.941 93.9484 23.3989 93.6906 23.9474 93.5536C24.4965 93.4137 25.1047 93.4141 25.7719 93.5546C26.4335 93.6939 26.986 93.938 27.4293 94.2869C27.8732 94.6329 28.1867 95.0532 28.37 95.5476C28.5539 96.0392 28.585 96.5741 28.4632 97.1524ZM27.5792 96.9662C27.6717 96.5269 27.6352 96.1418 27.4698 95.8109C27.3043 95.4799 27.0524 95.2077 26.7142 94.9942C26.3759 94.7807 25.9927 94.6288 25.5646 94.5387C25.1365 94.4485 24.7232 94.4326 24.3248 94.491C23.9264 94.5493 23.5834 94.6963 23.2957 94.9318C23.008 95.1674 22.8179 95.5047 22.7254 95.944C22.6329 96.3832 22.6708 96.7686 22.839 97.1002C23.0073 97.4317 23.2619 97.7045 23.603 97.9186C23.944 98.1327 24.3286 98.2848 24.7567 98.375C25.1848 98.4651 25.5967 98.4808 25.9923 98.4218C26.3879 98.3629 26.7282 98.2153 27.0131 97.9792C27.298 97.7431 27.4867 97.4054 27.5792 96.9662Z" fill="#EEEEEE"/>
<path d="M30.3321 89.7155C30.1603 90.2809 29.8751 90.7361 29.4763 91.0811C29.0784 91.4234 28.6012 91.6407 28.0447 91.7329C27.489 91.8224 26.8877 91.7688 26.2407 91.5723C25.5883 91.3741 25.0548 91.0829 24.6401 90.6986C24.2262 90.3116 23.9491 89.8651 23.8088 89.3593C23.6693 88.8508 23.6855 88.3139 23.8573 87.7485C24.029 87.1831 24.3139 86.7292 24.7118 86.3869C25.1106 86.0419 25.5891 85.8251 26.1475 85.7364C26.7068 85.645 27.3126 85.6984 27.965 85.8966C28.6119 86.0932 29.141 86.3845 29.5521 86.7707C29.9641 87.1542 30.2399 87.6002 30.3793 88.1087C30.5196 88.6145 30.5039 89.1501 30.3321 89.7155ZM29.4677 89.4529C29.5982 89.0234 29.5954 88.6366 29.4595 88.2925C29.3236 87.9483 29.0964 87.6551 28.7781 87.4129C28.4597 87.1707 28.0912 86.9861 27.6726 86.8589C27.254 86.7317 26.8437 86.6798 26.4417 86.7032C26.0397 86.7265 25.6852 86.843 25.3781 87.0525C25.0709 87.2621 24.8521 87.5816 24.7217 88.0111C24.5912 88.4406 24.5953 88.8278 24.7339 89.1728C24.8726 89.5177 25.1025 89.8117 25.4235 90.0548C25.7446 90.2978 26.1144 90.4829 26.533 90.6101C26.9517 90.7372 27.3606 90.7887 27.7599 90.7645C28.1591 90.7403 28.511 90.6231 28.8154 90.4127C29.1198 90.2023 29.3372 89.8824 29.4677 89.4529Z" fill="#EEEEEE"/>
<path d="M29.7489 83.4521L28.5844 83.0134L28.6591 82.823L26.9919 79.0925L27.4464 77.9342L29.2038 81.9015L29.1727 81.9808L29.7489 83.4521ZM31.6279 85.1966L23.5038 82.0084L23.8711 81.0722L31.9952 84.2604L31.6279 85.1966ZM33.1472 81.3249L29.1984 82.5219L28.8093 81.6002L33.6142 80.1349L33.1472 81.3249Z" fill="#EEEEEE"/>
<path d="M34.2753 78.7338L28.3256 76.0053L28.7448 75.0912L34.6945 77.8196L34.2753 78.7338ZM27.5472 75.0858C27.4654 75.264 27.3343 75.3898 27.1537 75.4632C26.9743 75.5341 26.7994 75.5305 26.629 75.4523C26.4585 75.3742 26.3416 75.244 26.2783 75.0618C26.2161 74.877 26.2259 74.6955 26.3076 74.5174C26.3893 74.3392 26.5199 74.2147 26.6993 74.1438C26.8799 74.0703 27.0554 74.0727 27.2258 74.1508C27.3962 74.229 27.5125 74.3605 27.5747 74.5452C27.638 74.7274 27.6289 74.9076 27.5472 75.0858Z" fill="#EEEEEE"/>
<path d="M32.3823 73.5037L35.8577 75.3544L35.385 76.2421L29.6076 73.1656L30.0643 72.308L30.967 72.7887L31.0071 72.7135C30.7858 72.4218 30.6596 72.0907 30.6284 71.72C30.5948 71.3481 30.6941 70.9439 30.9265 70.5076C31.1348 70.1164 31.3973 69.8169 31.714 69.609C32.0282 69.3997 32.3904 69.2997 32.8007 69.309C33.2085 69.3169 33.6581 69.4517 34.1496 69.7134L37.8206 71.6683L37.3479 72.556L33.737 70.6332C33.2832 70.3915 32.8669 70.3211 32.4881 70.4219C32.1068 70.5214 31.8067 70.7768 31.5877 71.188C31.4368 71.4714 31.3633 71.7573 31.3674 72.0459C31.3727 72.332 31.4592 72.6018 31.6268 72.8552C31.7944 73.1086 32.0463 73.3248 32.3823 73.5037Z" fill="#EEEEEE"/>
<path d="M42.5208 68.9084C42.257 69.3163 41.9778 69.6331 41.6831 69.8586C41.3907 70.0857 41.0966 70.2423 40.8008 70.3284C40.5088 70.4137 40.2304 70.4519 39.9655 70.443L39.9282 69.4648C40.0777 69.4532 40.2547 69.4307 40.4591 69.3971C40.6659 69.365 40.8826 69.2784 41.1091 69.1374C41.3396 68.9955 41.5621 68.7587 41.7765 68.4271C42.0634 67.9834 42.1928 67.5478 42.1648 67.1203C42.1367 66.6928 41.8937 66.3309 41.4357 66.0348L40.3192 65.3128L40.2729 65.3844C40.333 65.5112 40.4 65.6797 40.4738 65.8898C40.5469 66.0961 40.572 66.3424 40.5492 66.6287C40.5256 66.9112 40.3981 67.2313 40.1667 67.5891C39.8798 68.0329 39.5172 68.3634 39.0789 68.5807C38.6422 68.7956 38.1572 68.8761 37.6237 68.8221C37.0918 68.7657 36.5396 68.5524 35.967 68.1822C35.404 67.8182 34.9778 67.4022 34.6884 66.9342C34.3965 66.4647 34.2503 65.9794 34.2495 65.4782C34.2464 64.9755 34.3945 64.4928 34.6938 64.0299C34.9252 63.6721 35.1684 63.4268 35.4234 63.294C35.6776 63.1572 35.9161 63.0814 36.1389 63.0665C36.3608 63.0476 36.5396 63.038 36.6751 63.0377L36.7307 62.9518L35.8575 62.3872L36.3851 61.5713L42.039 65.2273C42.5113 65.5327 42.826 65.8884 42.983 66.2944C43.1439 66.6996 43.1771 67.127 43.0825 67.5767C42.9919 68.0255 42.8046 68.4694 42.5208 68.9084ZM39.4821 66.9841C39.7011 66.6453 39.8087 66.3089 39.8048 65.9749C39.8009 65.6408 39.6928 65.3188 39.4804 65.009C39.2681 64.6991 38.9591 64.4131 38.5536 64.1508C38.1575 63.8947 37.7695 63.7284 37.3894 63.6518C37.0093 63.5751 36.6578 63.5982 36.3348 63.7209C36.0119 63.8436 35.7393 64.0768 35.5172 64.4203C35.2858 64.7781 35.1836 65.135 35.2107 65.4908C35.2393 65.8442 35.3677 66.1792 35.5959 66.496C35.8257 66.8103 36.1267 67.0878 36.4988 67.3285C36.8805 67.5753 37.2566 67.7339 37.6272 67.8044C37.9969 67.8709 38.3416 67.8401 38.6613 67.7119C38.9802 67.5798 39.2538 67.3372 39.4821 66.9841Z" fill="#EEEEEE"/>
<path d="M41.6237 54.6189L42.2883 55.1524L40.0798 57.9042L39.4152 57.3707L41.6237 54.6189ZM45.1814 60.6434L39.3721 55.981C39.0796 55.7463 38.891 55.482 38.8063 55.1882C38.7216 54.8943 38.7185 54.5986 38.797 54.301C38.8756 54.0035 39.0127 53.7328 39.2083 53.4891C39.363 53.2963 39.5047 53.1515 39.6336 53.0545C39.7624 52.9576 39.8641 52.8898 39.9387 52.8513L40.4353 53.6215C40.39 53.6507 40.3289 53.6927 40.2521 53.7476C40.177 53.8003 40.0941 53.8831 40.0034 53.9961C39.7954 54.2554 39.7105 54.495 39.7488 54.7152C39.7888 54.9331 39.9351 55.1434 40.1877 55.3461L45.8108 59.8591L45.1814 60.6434Z" fill="#EEEEEE"/>
<path d="M49.6928 55.5169C49.292 55.951 48.837 56.2366 48.3278 56.3736C47.8205 56.5085 47.2963 56.4963 46.7552 56.337C46.2159 56.1756 45.6979 55.8656 45.2011 55.407C44.7001 54.9445 44.3466 54.45 44.1406 53.9235C43.9365 53.3948 43.8814 52.8723 43.9754 52.3559C44.0712 51.8374 44.3196 51.3611 44.7204 50.9269C45.1212 50.4927 45.5752 50.2081 46.0825 50.0732C46.5917 49.9363 47.1169 49.9494 47.6582 50.1128C48.2015 50.274 48.7236 50.5858 49.2246 51.0483C49.7214 51.5069 50.0708 51.9996 50.2728 52.5263C50.4767 53.0509 50.5308 53.5724 50.4349 54.0909C50.341 54.6073 50.0936 55.0827 49.6928 55.5169ZM49.029 54.9041C49.3334 54.5743 49.4994 54.2248 49.5268 53.8558C49.5543 53.4868 49.4775 53.124 49.2963 52.7674C49.1152 52.4107 48.8639 52.084 48.5424 51.7873C48.221 51.4905 47.8742 51.2651 47.5021 51.1111C47.1301 50.9571 46.7602 50.9076 46.3925 50.9625C46.0247 51.0174 45.6886 51.2098 45.3842 51.5396C45.0797 51.8694 44.9148 52.2198 44.8894 52.5908C44.8641 52.9617 44.943 53.3265 45.1262 53.685C45.3094 54.0436 45.5618 54.3713 45.8832 54.668C46.2047 54.9648 46.5504 55.1892 46.9204 55.3412C47.2904 55.4933 47.6582 55.5409 48.0238 55.4841C48.3894 55.4272 48.7245 55.2339 49.029 54.9041Z" fill="#EEEEEE"/>
<path d="M53.0172 51.8479L48.5253 47.087L49.232 46.4202L49.9105 47.1393L49.9601 47.0925C49.8246 46.7751 49.8013 46.4358 49.8902 46.0746C49.9791 45.7134 50.1661 45.3983 50.4513 45.1293C50.505 45.0786 50.5731 45.0163 50.6556 44.9423C50.7382 44.8683 50.8021 44.8139 50.8473 44.7791L51.5491 45.523C51.5185 45.5402 51.4529 45.5845 51.3524 45.6559C51.2519 45.7233 51.1531 45.8029 51.056 45.8945C50.8246 46.1128 50.6638 46.3564 50.5736 46.625C50.4835 46.8897 50.4657 47.1565 50.5201 47.4253C50.5747 47.6902 50.7034 47.9301 50.9062 48.145L53.7487 51.1577L53.0172 51.8479Z" fill="#EEEEEE"/>
<path d="M61.0491 45.0504C60.5636 45.4257 60.0569 45.6342 59.529 45.676C59.0012 45.7178 58.4873 45.6105 57.9875 45.3541C57.4877 45.0978 57.038 44.7111 56.6384 44.1941C56.2318 43.6682 55.9696 43.1293 55.8519 42.5776C55.7347 42.0219 55.7626 41.4958 55.9355 40.9995C56.1089 40.4992 56.4293 40.0683 56.8968 39.7069C57.2609 39.4255 57.6412 39.2392 58.0377 39.1482C58.4341 39.0572 58.8194 39.0609 59.1936 39.1595C59.5678 39.258 59.9025 39.4517 60.1977 39.7406L59.402 40.3557C59.1589 40.1666 58.8624 40.0618 58.5127 40.0414C58.1634 40.0169 57.8135 40.1402 57.4628 40.4113C57.1527 40.651 56.9432 40.9422 56.8346 41.2847C56.7265 41.6233 56.7201 41.989 56.8157 42.382C56.9117 42.771 57.1109 43.161 57.4132 43.5521C57.7225 43.9522 58.0547 44.2519 58.4099 44.4513C58.7674 44.6489 59.1253 44.7403 59.4836 44.7254C59.8442 44.7088 60.1819 44.5789 60.4965 44.3356C60.7033 44.1758 60.8632 43.9947 60.9762 43.7925C61.0891 43.5902 61.1519 43.3765 61.1646 43.1513C61.1772 42.9261 61.1352 42.7 61.0387 42.473L61.8344 41.8579C62.0257 42.1983 62.1273 42.5597 62.1392 42.9419C62.1515 43.3202 62.0683 43.6933 61.8895 44.0613C61.7113 44.4253 61.4311 44.755 61.0491 45.0504Z" fill="#EEEEEE"/>
<path d="M66.4375 41.1985C65.9424 41.5212 65.4313 41.6865 64.9041 41.6945C64.3792 41.7008 63.874 41.5605 63.3884 41.2734C62.9052 40.9847 62.479 40.5572 62.1098 39.9907C61.7375 39.4196 61.516 38.8535 61.4454 38.2925C61.3771 37.73 61.4518 37.2099 61.6695 36.7323C61.8896 36.2531 62.2472 35.8522 62.7422 35.5295C63.2372 35.2068 63.7471 35.0423 64.272 35.0359C64.7992 35.0279 65.3052 35.1695 65.79 35.4605C66.2771 35.75 66.7068 36.1804 67.0791 36.7516C67.4484 37.318 67.6663 37.8813 67.733 38.4414C67.8021 39 67.7266 39.5189 67.5065 39.9981C67.2888 40.4757 66.9325 40.8758 66.4375 41.1985ZM65.9441 40.4417C66.3202 40.1966 66.5667 39.8985 66.6838 39.5475C66.8009 39.1965 66.8154 38.8259 66.7272 38.4357C66.6391 38.0456 66.4755 37.6672 66.2366 37.3007C65.9977 36.9342 65.7168 36.6307 65.3939 36.3902C65.0709 36.1497 64.7245 36.011 64.3545 35.974C63.9845 35.9371 63.6115 36.0412 63.2355 36.2863C62.8595 36.5314 62.6137 36.8307 62.4981 37.1841C62.3826 37.5375 62.3697 37.9104 62.4594 38.303C62.5491 38.6955 62.7134 39.0751 62.9523 39.4416C63.1912 39.8081 63.4714 40.1104 63.7928 40.3485C64.1142 40.5867 64.4591 40.723 64.8275 40.7576C65.1959 40.7921 65.5681 40.6868 65.9441 40.4417Z" fill="#EEEEEE"/>
<path d="M72.1993 30.1022L73.1904 37.0101L72.2913 37.4975L67.0442 32.8965L68.0033 32.3766L72.0773 36.1012L72.1373 36.0687L71.2402 30.6221L72.1993 30.1022Z" fill="#EEEEEE"/>
<path d="M78.837 34.3805C78.2618 34.6391 77.7085 34.7353 77.1772 34.6689C76.6473 34.5988 76.1665 34.3851 75.7349 34.0278C75.3047 33.6668 74.9522 33.1805 74.6772 32.569C74.4023 31.9575 74.2714 31.3685 74.2845 30.8019C74.2991 30.2316 74.4484 29.7253 74.7323 29.283C75.0177 28.837 75.4299 28.4928 75.9688 28.2505C76.2797 28.1107 76.6101 28.0245 76.9598 27.9918C77.3096 27.9592 77.6613 28.0035 78.0149 28.1249C78.3673 28.2437 78.703 28.4603 79.0219 28.7748C79.3408 29.0893 79.6255 29.525 79.876 30.0821L80.0507 30.4708L75.449 32.5397L75.0925 31.7469L78.7615 30.0973C78.61 29.7605 78.4075 29.4902 78.154 29.2865C77.903 29.0816 77.6201 28.9581 77.3052 28.9159C76.9929 28.8725 76.6709 28.9254 76.3393 29.0745C75.9739 29.2387 75.6986 29.4715 75.5133 29.7729C75.3293 30.0705 75.2308 30.3952 75.2176 30.7468C75.2044 31.0985 75.2718 31.4389 75.4197 31.768L75.6574 32.2965C75.8601 32.7474 76.1096 33.0946 76.4061 33.3383C76.7039 33.5781 77.0294 33.7168 77.3827 33.7542C77.7347 33.789 78.096 33.7231 78.4666 33.5566C78.7075 33.4482 78.91 33.3167 79.0741 33.1619C79.2395 33.0034 79.3627 32.8235 79.4434 32.6221C79.523 32.4181 79.5551 32.195 79.5396 31.9528L80.5376 31.8031C80.5795 32.1456 80.5415 32.4804 80.4238 32.8074C80.3049 33.1318 80.1121 33.4303 79.8453 33.7029C79.5773 33.9729 79.2412 34.1988 78.837 34.3805Z" fill="#EEEEEE"/>
<path d="M82.1976 32.7851L79.8981 26.6569L80.8078 26.3156L81.1551 27.2412L81.2189 27.2172C81.2169 26.8721 81.3267 26.5502 81.5484 26.2516C81.7701 25.953 82.0645 25.7348 82.4316 25.597C82.5007 25.5711 82.5877 25.54 82.6924 25.5037C82.7972 25.4675 82.8771 25.442 82.9323 25.4274L83.2916 26.3849C83.2567 26.3889 83.179 26.4044 83.0587 26.4313C82.94 26.4546 82.8181 26.4897 82.6931 26.5366C82.3952 26.6484 82.1527 26.8107 81.9655 27.0236C81.78 27.2328 81.6604 27.4718 81.6066 27.7409C81.5544 28.0062 81.5802 28.2772 81.684 28.5538L83.1392 32.4318L82.1976 32.7851Z" fill="#EEEEEE"/>
<path d="M91.3184 29.8842C90.9177 29.9912 90.5338 30.0128 90.1669 29.949C89.7992 29.8825 89.4809 29.7308 89.2118 29.4939C88.942 29.2542 88.7522 28.9285 88.6423 28.5168C88.5456 28.1545 88.5385 27.8417 88.6212 27.5786C88.7031 27.3126 88.8462 27.0833 89.0506 26.8906C89.255 26.6978 89.4928 26.5314 89.7642 26.3913C90.0375 26.2478 90.3159 26.1176 90.5994 26.0008C90.9705 25.8488 91.2721 25.7286 91.5043 25.6402C91.7385 25.5482 91.9021 25.4561 91.9951 25.3636C92.0907 25.2705 92.1177 25.1456 92.0759 24.9892L92.0671 24.9563C91.9587 24.55 91.7633 24.264 91.4809 24.0983C91.2012 23.9319 90.8377 23.9083 90.3903 24.0278C89.9264 24.1516 89.5898 24.3502 89.3805 24.6237C89.1713 24.8971 89.0439 25.1634 88.9984 25.4225L87.9882 25.3393C88.0503 24.9111 88.19 24.5533 88.4074 24.266C88.6267 23.9751 88.8883 23.7436 89.1923 23.5713C89.4982 23.3955 89.8104 23.2652 90.1288 23.1802C90.3319 23.126 90.5718 23.0884 90.8485 23.0675C91.1272 23.043 91.4098 23.072 91.6964 23.1543C91.9858 23.2358 92.2527 23.4042 92.4972 23.6594C92.7418 23.9146 92.9311 24.2934 93.0652 24.7957L94.1774 28.9623L93.2057 29.2217L92.9771 28.3653L92.9277 28.3785C92.8985 28.5333 92.8279 28.7095 92.7159 28.907C92.604 29.1044 92.435 29.2921 92.2091 29.4701C91.9831 29.648 91.6862 29.7861 91.3184 29.8842ZM91.2336 28.9718C91.6179 28.8693 91.9217 28.7073 92.1449 28.486C92.3708 28.264 92.5192 28.0156 92.5899 27.7409C92.6634 27.4655 92.665 27.196 92.5947 26.9325L92.3573 26.0432C92.3293 26.1036 92.2508 26.1731 92.1218 26.2516C91.9948 26.3267 91.8448 26.4035 91.6717 26.482C91.5006 26.5571 91.3329 26.6283 91.1686 26.6957C91.0063 26.7596 90.8748 26.8123 90.7742 26.8539C90.5304 26.9542 90.3087 27.0708 90.1089 27.2035C89.9111 27.3327 89.7643 27.4881 89.6687 27.6694C89.575 27.8473 89.5612 28.0598 89.6271 28.3068C89.7172 28.6444 89.9103 28.8664 90.2062 28.9726C90.5041 29.0754 90.8466 29.0751 91.2336 28.9718Z" fill="#EEEEEE"/>
<path d="M95.8755 28.5768L94.6001 22.1568L95.553 21.9674L95.7457 22.9371L95.8125 22.9238C95.8665 22.5829 96.027 22.2831 96.2942 22.0244C96.5614 21.7657 96.8873 21.5981 97.2718 21.5217C97.3443 21.5073 97.4351 21.4907 97.5443 21.4719C97.6536 21.4531 97.7366 21.441 97.7934 21.4355L97.9927 22.4386C97.9576 22.4369 97.8785 22.4395 97.7554 22.4466C97.6345 22.4504 97.5085 22.4653 97.3776 22.4913C97.0655 22.5533 96.7999 22.6741 96.5807 22.8538C96.3637 23.0301 96.2069 23.2467 96.1102 23.5034C96.0157 23.7568 95.9972 24.0284 96.0548 24.3181L96.8619 28.3808L95.8755 28.5768Z" fill="#EEEEEE"/>
<path d="M102.374 20.8047L102.495 21.6483L99.137 22.1301L99.0159 21.2864L102.374 20.8047ZM99.7718 19.5937L100.767 19.4509L101.653 25.6263C101.694 25.9075 101.765 26.1126 101.866 26.2415C101.971 26.3672 102.091 26.4446 102.227 26.4739C102.366 26.4999 102.508 26.5024 102.654 26.4814C102.764 26.4657 102.853 26.4472 102.922 26.4258C102.99 26.4017 103.045 26.3824 103.086 26.3679L103.417 27.2331C103.353 27.2681 103.262 27.3069 103.145 27.3495C103.028 27.395 102.877 27.4311 102.691 27.4577C102.41 27.4981 102.126 27.4771 101.838 27.395C101.554 27.3124 101.305 27.16 101.093 26.938C100.883 26.7156 100.751 26.4159 100.697 26.0391L99.7718 19.5937Z" fill="#EEEEEE"/>
<path d="M146.7 32.8217C163.803 39.4128 178.424 51.1743 188.526 66.4678" stroke="white" stroke-width="5" stroke-linecap="round"/>
<path d="M138.817 53.2763C151.664 58.2273 162.646 67.0621 170.235 78.5499" stroke="#F2F2F2" stroke-width="5" stroke-linecap="round"/>
<path d="M111.345 179.286C97.9741 178.521 85.1746 173.605 74.7299 165.222" stroke="#111111" stroke-width="5" stroke-linecap="round"/>
<path d="M109.942 203.819C91.4664 202.762 73.7808 195.969 59.3487 184.386" stroke="#0D0D0D" stroke-width="5" stroke-linecap="round"/>
</g>
<defs>
<clipPath id="clip0_2_2">
<rect width="230.043" height="230.043" fill="white"/>
</clipPath>
</defs>
</svg>
